<svg xmlns="http://www.w3.org/2000/svg" xmlns:xlink="http://www.w3.org/1999/xlink" viewBox="0 0 88.74 114.28"><defs><style>.cls-1,.cls-3,.cls-4,.cls-5{fill:none;stroke-miterlimit:10;}.cls-1{stroke-width:5px;stroke:url(#Dégradé_sans_nom_152);}.cls-2{fill:url(#Dégradé_sans_nom_172);}.cls-3,.cls-4,.cls-5{stroke-width:3px;}.cls-3{stroke:url(#Dégradé_sans_nom_152-2);}.cls-4{stroke:url(#Dégradé_sans_nom_152-3);}.cls-5{stroke:url(#Dégradé_sans_nom_152-4);}.cls-6{fill:url(#Dégradé_sans_nom_164);}.cls-7{fill:url(#Dégradé_sans_nom_164-2);}</style><linearGradient id="Dégradé_sans_nom_152" x1="-5.25" y1="98.78" x2="93.99" y2="15.5" gradientUnits="userSpaceOnUse"><stop offset="0.01" stop-color="#ffae43"/><stop offset="0.18" stop-color="#fdaf45"/><stop offset="0.25" stop-color="#f7b04c"/><stop offset="0.29" stop-color="#edb457"/><stop offset="0.33" stop-color="#deb868"/><stop offset="0.36" stop-color="#cbbe7e"/><stop offset="0.39" stop-color="#b3c69a"/><stop offset="0.41" stop-color="#98cfb9"/><stop offset="0.42" stop-color="#91d1c1"/><stop offset="0.45" stop-color="#99cfc4"/><stop offset="0.71" stop-color="#cdbed7"/><stop offset="0.9" stop-color="#edb4e3"/><stop offset="1" stop-color="#f9b0e7"/></linearGradient><linearGradient id="Dégradé_sans_nom_172" x1="16.69" y1="31.06" x2="32.73" y2="17.6" gradientUnits="userSpaceOnUse"><stop offset="0.01" stop-color="#ffae43"/><stop offset="0.03" stop-color="#ecb459"/><stop offset="0.09" stop-color="#cbbe7e"/><stop offset="0.14" stop-color="#b2c79b"/><stop offset="0.2" stop-color="#a0ccb0"/><stop offset="0.25" stop-color="#95d0bd"/><stop offset="0.3" stop-color="#91d1c1"/><stop offset="0.32" stop-color="#94d0c2"/><stop offset="0.53" stop-color="#bfc2d2"/><stop offset="0.72" stop-color="#dfb8dd"/><stop offset="0.89" stop-color="#f2b2e4"/><stop offset="1" stop-color="#f9b0e7"/></linearGradient><linearGradient id="Dégradé_sans_nom_152-2" x1="25.95" y1="65.56" x2="63.05" y2="34.42" xlink:href="#Dégradé_sans_nom_152"/><linearGradient id="Dégradé_sans_nom_152-3" x1="26" y1="77.46" x2="63.1" y2="46.32" xlink:href="#Dégradé_sans_nom_152"/><linearGradient id="Dégradé_sans_nom_152-4" x1="26.05" y1="89.36" x2="63.15" y2="58.22" xlink:href="#Dégradé_sans_nom_152"/><linearGradient id="Dégradé_sans_nom_164" x1="52.9" y1="27.79" x2="62.85" y2="19.44" gradientUnits="userSpaceOnUse"><stop offset="0" stop-color="#91d1c1"/><stop offset="0.07" stop-color="#a0ccc6"/><stop offset="0.23" stop-color="#c0c2d2"/><stop offset="0.41" stop-color="#d9badb"/><stop offset="0.59" stop-color="#ebb4e2"/><stop offset="0.78" stop-color="#f6b1e6"/><stop offset="1" stop-color="#f9b0e7"/></linearGradient><linearGradient id="Dégradé_sans_nom_164-2" x1="62.67" y1="25.52" x2="72.62" y2="17.17" xlink:href="#Dégradé_sans_nom_164"/></defs><title>cv</title><g id="Calque_2" data-name="Calque 2"><g id="Calque_1-2" data-name="Calque 1"><rect class="cls-1" x="2.5" y="2.5" width="83.74" height="109.28" rx="12"/><circle class="cls-2" cx="24.71" cy="24.33" r="10.47"/><line class="cls-3" x1="14.24" y1="50.12" x2="74.76" y2="49.86"/><line class="cls-4" x1="14.29" y1="62.02" x2="74.81" y2="61.76"/><line class="cls-5" x1="14.35" y1="73.92" x2="74.86" y2="73.66"/><path class="cls-6" d="M61.21,29.39a8.1,8.1,0,0,1-3.34.6c-3.57,0-6.26-2.25-6.26-6.4a6.3,6.3,0,0,1,6.61-6.65,6.7,6.7,0,0,1,3,.57l-.4,1.33a5.94,5.94,0,0,0-2.55-.53c-3,0-4.94,1.9-4.94,5.22,0,3.1,1.78,5.09,4.87,5.09a6.53,6.53,0,0,0,2.66-.52Z"/><path class="cls-7" d="M66.27,29.81,62.14,17.15H63.9l2,6.23c.55,1.71,1,3.25,1.36,4.74h0c.36-1.47.89-3.06,1.45-4.72l2.14-6.25H72.6L68.07,29.81Z"/></g></g></svg>